<?xml version="1.0" standalone="no"?>
<!DOCTYPE svg PUBLIC "-//W3C//DTD SVG 20010904//EN"
 "http://www.w3.org/TR/2001/REC-SVG-20010904/DTD/svg10.dtd">
<svg version="1.0" xmlns="http://www.w3.org/2000/svg"
 width="500.000000pt" height="500.000000pt" viewBox="0 0 500.000000 500.000000"
 preserveAspectRatio="xMidYMid meet">
<metadata>
Created by potrace 1.15, written by Peter Selinger 2001-2017
</metadata>
<g transform="translate(0.000000,500.000000) scale(0.100000,-0.100000)"
fill="#000000" stroke="none">
<path d="M0 2500 l0 -2500 2500 0 2500 0 0 2500 0 2500 -2500 0 -2500 0 0
-2500z m2541 2019 c57 -6 123 -20 147 -30 30 -13 89 -63 178 -150 117 -116
136 -139 159 -196 14 -35 28 -90 31 -122 6 -55 4 -64 -62 -210 -38 -84 -77
-161 -86 -171 -21 -22 -132 -57 -226 -72 -36 -6 -115 -8 -176 -6 -90 3 -119 8
-153 26 -64 34 -350 308 -378 362 -52 102 -51 113 10 246 30 65 55 125 55 132
0 25 49 107 71 121 25 15 271 80 306 81 12 0 68 -5 124 -11z m179 -1380 c24
-6 59 -33 116 -91 67 -68 85 -94 105 -148 33 -92 31 -159 -10 -246 -18 -38
-45 -83 -61 -99 -36 -38 -61 -130 -125 -460 -25 -132 -64 -332 -87 -445 -31
-155 -41 -230 -42 -310 l-1 -105 148 -11 c196 -15 213 -28 273 -208 34 -100
30 -123 -37 -261 -71 -144 -96 -163 -330 -239 -219 -72 -271 -81 -377 -68
l-83 10 -118 119 c-65 65 -124 129 -131 141 -6 13 -32 82 -56 153 l-44 130 0
197 c0 223 11 309 87 682 25 124 51 258 58 298 13 83 15 82 -76 36 -43 -22
-185 -65 -256 -77 -48 -9 -260 11 -291 27 -15 8 -55 43 -89 78 -56 56 -66 73
-93 152 -16 50 -30 100 -30 112 0 12 23 73 50 136 56 124 87 160 175 204 35
16 77 27 126 31 41 3 90 14 109 23 66 33 265 107 330 123 36 9 112 28 170 42
57 14 132 30 166 35 34 6 86 21 116 35 50 24 59 25 163 19 61 -3 126 -10 145
-15z"/>
</g>
</svg>
